<svg width="248" height="210" viewBox="0 0 248 210" fill="none" xmlns="http://www.w3.org/2000/svg"><path d="M217.556 176.753C220.668 178.137 224.472 179.174 230.35 179.52V192.314H134.913V179.52C139.754 179.174 144.595 178.482 148.053 177.099C153.586 174.679 156.352 169.146 156.352 160.156V92.3815C156.352 66.1017 151.165 50.1955 124.194 50.1955C114.512 50.1955 106.213 51.9245 95.1478 56.0739V160.156C95.1478 169.146 97.9141 173.987 103.792 176.753C106.905 178.137 110.708 179.174 116.241 179.52V192.314H21.1494V179.52C25.6447 179.174 30.4857 178.482 33.9435 177.099C39.8219 174.679 42.5882 169.146 42.5882 160.156V55.0365C42.5882 44.3171 40.8593 40.8593 29.7941 40.5135C26.3362 40.5135 20.8037 40.8593 17 41.2051V29.1025C30.4857 24.2615 57.457 17 74.0548 17C90.6526 17 95.1478 23.5699 95.1478 38.4388V48.1208C113.129 29.7941 134.222 17 158.773 17C193.351 17 208.912 35.3267 208.912 77.5127V160.156C208.912 169.146 212.024 173.987 217.556 176.753Z" fill="black"/>
<path d="M139.352 92.3818C139.352 79.344 137.834 73.3443 136.087 70.627C135.599 69.8677 134.155 67.1954 124.194 67.1953C120.143 67.1953 116.387 67.5702 112.147 68.5479V160.155C112.147 160.811 112.173 161.343 112.207 161.769C113.322 162.094 114.915 162.404 117.301 162.553C120.356 162.744 123.181 163.734 125.577 165.312C127.933 163.761 130.704 162.777 133.702 162.562C136.085 162.392 137.935 162.151 139.283 161.913C139.324 161.431 139.352 160.849 139.352 160.155V92.3818ZM156.352 160.155C156.352 169.146 153.585 174.679 148.053 177.1C144.595 178.483 139.754 179.174 134.913 179.52V192.313H230.351V179.52C224.473 179.174 220.669 178.137 217.557 176.754C212.024 173.988 208.911 169.146 208.911 160.155V77.5127C208.911 35.3267 193.351 17 158.772 17C134.222 17 113.128 29.7944 95.1475 48.1211V38.4385C95.1474 23.5699 90.6523 17 74.0547 17C57.4569 17 30.4857 24.2615 17 29.1025V41.2051C20.8036 40.8593 26.3361 40.5137 29.7939 40.5137C40.859 40.8594 42.5878 44.3171 42.5879 55.0361V160.155C42.5879 169.146 39.8217 174.679 33.9434 177.1C30.4855 178.483 25.6445 179.174 21.1494 179.52V192.313H116.241V179.52C110.709 179.174 106.904 178.137 103.792 176.754C97.9138 173.988 95.1475 169.146 95.1475 160.155V56.0742C106.213 51.9248 114.512 50.1953 124.194 50.1953L125.442 50.207C151.326 50.6951 156.352 66.5127 156.352 92.3818V160.155ZM225.911 160.155C225.911 160.834 225.944 161.364 225.984 161.768C227.103 162.085 228.76 162.397 231.349 162.549C240.334 163.077 247.35 170.519 247.351 179.52V192.313C247.351 201.702 239.739 209.313 230.351 209.313H134.913C131.464 209.313 128.256 208.286 125.576 206.521C122.897 208.286 119.689 209.313 116.241 209.313H21.1494C11.7606 209.313 4.14941 201.702 4.14941 192.313V179.52C4.14952 170.637 10.9888 163.252 19.8457 162.57C22.2666 162.384 24.1684 162.114 25.5234 161.854C25.5614 161.389 25.5879 160.826 25.5879 160.155V57.6445C23.2544 57.7614 20.655 57.9434 18.5391 58.1357C13.7824 58.5681 9.06306 56.9786 5.53613 53.7578C2.00936 50.537 0 45.9813 0 41.2051V29.1025C0 21.9284 4.50371 15.5266 11.2559 13.1025C25.2292 8.08649 54.4472 3.04146e-05 74.0547 0C83.8645 0 95.2699 1.80484 103.376 10.6777C104.938 12.3871 106.225 14.2009 107.287 16.0742C122.228 6.37501 139.375 1.67124e-05 158.772 0C178.985 0 197.278 5.4443 209.869 20.5537C221.862 34.9458 225.911 54.9327 225.911 77.5127V160.155Z" fill="white"/>
</svg>
