<svg width="1022" height="268" viewBox="0 0 1022 268" fill="none" xmlns="http://www.w3.org/2000/svg"><path d="M200.556 246.892C203.668 248.275 207.472 249.312 213.35 249.658V262.452H117.913V249.658C122.754 249.312 127.595 248.621 131.053 247.238C136.586 244.817 139.352 239.284 139.352 230.294V162.52C139.352 136.24 134.165 120.334 107.194 120.334C97.5118 120.334 89.2129 122.063 78.1478 126.212V230.294C78.1478 239.284 80.914 244.125 86.7924 246.892C89.9045 248.275 93.7082 249.312 99.2407 249.658V262.452H4.14941V249.658C8.64463 249.312 13.4856 248.621 16.9435 247.238C22.8219 244.817 25.5882 239.284 25.5882 230.294V125.175C25.5882 114.455 23.8592 110.998 12.7941 110.652C9.33621 110.652 3.80362 110.998 -3.13534e-05 111.343V99.2408C13.4856 94.3998 40.457 87.1383 57.0548 87.1383C73.6525 87.1383 78.1478 93.7083 78.1478 108.577V118.259C96.1287 99.9324 117.222 87.1383 141.773 87.1383C176.351 87.1383 191.912 105.465 191.912 147.651V230.294C191.912 239.284 195.024 244.125 200.556 246.892ZM387.681 169.09C387.681 222.687 351.719 267.639 290.169 267.639C241.067 267.639 204.76 238.593 204.76 183.959C204.76 124.829 247.637 87.1383 303.655 87.1383C354.485 87.1383 387.681 117.568 387.681 169.09ZM331.663 180.501C331.663 136.586 321.29 107.194 293.627 107.194C268.039 107.194 260.777 132.436 260.777 171.164C260.777 214.734 270.113 247.583 298.122 247.583C321.29 247.583 331.663 224.07 331.663 180.501ZM488.694 172.548L531.571 231.677C539.524 242.742 548.861 248.966 558.197 250.35V262.452H463.797V250.35C477.283 250.35 480.395 242.051 474.517 233.752L447.545 196.407L429.218 219.229C415.733 236.518 420.574 248.621 436.134 250.35V262.452H367.668V250.35C379.771 247.583 393.257 238.939 404.322 225.453L438.901 184.65L394.294 123.1C386.341 112.035 380.463 105.811 371.126 104.428V91.9793H465.526V104.428C452.04 104.428 445.47 112.727 451.349 121.025L480.049 160.445L498.03 135.548C508.404 121.371 503.563 106.848 488.002 104.428V91.9793H556.122V104.428C544.02 107.194 532.263 117.568 522.927 129.324L488.694 172.548ZM562.117 26.2799C562.117 6.91581 575.257 5.80998e-05 590.125 5.80998e-05C604.994 5.80998e-05 617.788 6.91581 617.788 26.2799C617.788 45.2981 604.994 52.2139 590.125 52.2139C575.257 52.2139 562.117 45.2981 562.117 26.2799ZM620.209 108.577V230.294C620.209 239.284 622.975 244.125 628.854 246.892C631.966 248.275 635.769 249.312 641.302 249.658V262.452H546.211V249.658C550.706 249.312 555.547 248.621 559.005 247.238C564.883 244.817 567.649 239.284 567.649 230.294V125.175C567.649 114.11 565.575 110.652 553.818 110.652C550.36 110.652 545.519 110.998 542.061 111.343V99.2408C555.547 94.3998 582.518 87.1383 599.116 87.1383C615.714 87.1383 620.209 93.7083 620.209 108.577ZM816.618 169.09C816.618 222.687 780.657 267.639 719.107 267.639C670.005 267.639 633.697 238.593 633.697 183.959C633.697 124.829 676.575 87.1383 732.592 87.1383C783.423 87.1383 816.618 117.568 816.618 169.09ZM760.601 180.501C760.601 136.586 750.227 107.194 722.564 107.194C696.976 107.194 689.715 132.436 689.715 171.164C689.715 214.734 699.051 247.583 727.06 247.583C750.227 247.583 760.601 224.07 760.601 180.501ZM1009.1 246.892C1012.21 248.275 1016.02 249.312 1021.9 249.658V262.452H926.46V249.658C931.301 249.312 936.142 248.621 939.6 247.238C945.132 244.817 947.898 239.284 947.898 230.294V162.52C947.898 136.24 942.712 120.334 915.74 120.334C906.058 120.334 897.759 122.063 886.694 126.212V230.294C886.694 239.284 889.46 244.125 895.339 246.892C898.451 248.275 902.255 249.312 907.787 249.658V262.452H812.696V249.658C817.191 249.312 822.032 248.621 825.49 247.238C831.368 244.817 834.135 239.284 834.135 230.294V125.175C834.135 114.455 832.406 110.998 821.341 110.652C817.883 110.652 812.35 110.998 808.546 111.343V99.2408C822.032 94.3998 849.003 87.1383 865.601 87.1383C882.199 87.1383 886.694 93.7083 886.694 108.577V118.259C904.675 99.9324 925.768 87.1383 950.319 87.1383C984.898 87.1383 1000.46 105.465 1000.46 147.651V230.294C1000.46 239.284 1003.57 244.125 1009.1 246.892Z" fill="currentColor"/>
</svg>
